<?xml version="1.0" encoding="UTF-8"?><svg id="Layer_1" xmlns="http://www.w3.org/2000/svg" viewBox="0 0 2498.48 3001.3"><defs><style>.cls-1{fill:#303934;}.cls-2{fill:#6a886d;}.cls-3{fill:#c6cd96;}.cls-4{fill:#e9ebdd;}.cls-5{fill:#678369;}.cls-6{fill:#eadd9e;}</style></defs><path class="cls-1" d="M1437.47,17.91c38.07-26.02,89.49-22.01,127.82,1.21,37.28,23.09,68.49,54.89,94.3,90.12,31.84.59,63.68.17,95.52.25,11.38-26.44,25.98-56.57,56.06-65.18,24.77-6.23,58.28-4.35,72.63,20.21,17.99,31,20.04,68.87,14.69,103.63,80.25,25.86,154.8,83.93,179.99,167.02,30.67-.21,61.46-1.46,91.96,3.05,25.4,4.1,51.08-10.42,76.02-.59,41.8,15.1,63.89,59.03,71.92,100.2,1.97,18.66,21.09,26.15,32.59,38.37,73.17,69.91,118.23,174.42,101.42,276.22-18.62,106.1-96.81,190.82-185.72,246.09-2.18,33.22-2.68,67.02-12.8,99.07-13.01,45.14-41.63,85.35-79.41,113.13-62.92,47.32-145.35,63.72-222.62,54.6-12.01-2.01-23.85,1.05-34.68,5.98-22.55,9.79-47.07,13.01-70.83,18.49,14.1,60.33,33.39,119.62,41.25,181.28,1,11.76,6.95,22.17,15.52,30.08,22.8,22.43,45.39,45.1,67.57,68.15,19.33-42.8,48.45-80.12,77.82-116.35,8.03-10.79,8.91-24.73,12.84-37.15,11.51-47.4,66.94-80.96,113.84-65.02,22.22,7.32,39.75,35.39,24.98,56.86-17.91,22.26-49.37,21.3-74.01,31.13,30.25,3.47,65.27-.92,89.32,21.97,19.41,14.35,19.29,48.49-3.22,59.7-28.99,13.14-63.05,9.87-92.59.04,4.14,45.94-20.96,86.73-40.96,125.97-19.5,33.68-37.49,70.33-68.41,95.14-26.65,19.75-60.12,5.06-87.48-5.06,1,92.59-3.56,185.84-25.14,276.17,36.94,26.48,76.02,52.67,101.46,91.29,9.41,13.76,14.31,30.63,11.51,47.32-9.33,86.9-36.73,174.09-18.7,261.82,12.26-18.91,19.12-40.88,33.01-58.82,16.15-22.26,40.04-37.32,64.68-48.62,20.96-11.38,45.48-3.35,67.61-10.84,24.81-4.69,38.41,19.83,49.54,37.45,26.07-18.24,54.64-38.41,88.19-35.94,40.5.54,71.12,42.09,67.11,80.87-1.21,21.88-16.19,40.33-16.02,62.46-.88,38.03-15.35,77.99-46.9,101.04-11.71,9.41-27.11,13.68-37.36,24.89-45.85,62-96.94,127.19-171.54,155.3-21.5,14.39-38.45,35.48-62.88,45.77-33.81,18.91-84.51,28.2-111.83-6.19-32.51-44.68-41.42-101.12-55.98-153.25-10.38-63.05-63.38-104.39-103.26-149.65-56.48,22.01-119.32,20.46-177.98,8.83-14.81-4.06-27.82,5.4-40.37,11.67-73.51,38.74-154.3,61.29-236.26,73.47-27.78,48.11-57.4,97.52-103.13,130.87-74.64,56.9-177.94,64.93-265.09,34.93-18.91-10.33-35.35,8.03-46.31,21.38-3.6,15.27-5.98,30.88-10.5,46.02,45.06,12.93,78.86,53.39,86.19,99.2,1.76,14.48-6.32,27.15-13.51,38.91-9.5,12.43,7.7,32.26-8.41,41.63-33.81,18.7-72.55,4.73-107.61-1.63-4.23,11-7.41,24.6-19.45,29.66-30.71,16.69-66.65,5.94-97.94-3.05-19.87-7.45-40.04,5.52-60.29,1.67-67.15-9.87-113.55-84.18-97.27-149.19,16.19-63.26,50.92-119.45,76.94-178.86,28.7-54.47,47.99-113.09,72.51-169.36,10.88-33.97,51.96-36.86,77.53-55.56-128.53-56.73-235.63-155.8-311.78-272.95-79.32-117.36-122.54-254.67-152.5-391.94-25.65-91.67-52.46-189.28-121.37-258.85-37.03-38.91-90.54-54.52-141.96-62.92-20.67-4.9-46.98-9.58-57.49-30.29-2.72-21.13,22.09-30.88,38.07-37.49,128.15-44.64,279.27-36.69,393.28,41.21,15.02,9.96,27.7,23.89,44.47,30.96,30.71-.79,60.96-14.39,91.83-8.79,20.33,5.61,26.82,28.95,28.95,47.44,4.77,34.98-9.87,68.15-12.38,102.5,10.96,6.4,21.21,14.6,33.55,18.32,34.39-5.06,61.59-32.34,96.6-35.48,21.04-1.09,38.45,15.31,47.4,33.01,14.1,30.37,17.28,64.26,25.6,96.35,18.33,11.55,42.09,3.97,62.21,1.38,7.36-55.48,19.54-111.92,49.24-160.11,11.05-17.78,24.56-35.9,44.77-43.6,18.49-6.9,38.78-1.76,56.06,6.15,35.27,16.07,66.77,38.91,98.4,61,12.84-8.7,25.6-17.53,38.45-26.27-14.14-65.56-35.86-139.15-4.06-202.79,15.65-34.06,56.1-45.56,90.75-40,47.99,5.44,95.85,12.47,143.42,20.84,4.27-12.17,13.26-24.77,10.17-37.99-37.7-25.27-83.43-47.44-103.13-90.79-13.39-33.6,16.15-62.05,36.27-85.14,10.88-12.09,27.03-21.92,27.49-40-54.56,22.17-115.05,33.93-173.46,22.05-27.07-6.15-55.31-23.51-60.5-52.88-10.38-59.24,11.8-117.61,32.05-172.29-64.43-19.71-123.55-55.02-173.88-99.57-26.36-24.18-49.33-54.93-55.6-90.87-4.56-37.53,17.91-72.76,44.89-96.81,46.19-40.5,98.19-75.27,155.39-98.15-20-67.95-40.71-138.48-33.6-210.07,3.1-37.65,31.76-68.87,66.61-80.91,62.17-22.63,129.07-12.22,193.17-7.2,21.92-62.09,47.49-129.45,104.76-167.35ZM1476.55,32.6c-62.3,24.18-98.74,88.57-118.03,149.32,3.31-2.38,6.44-4.94,9.54-7.66,76.61-37.74,161.54-51.92,245.59-61.59,9.58.29,19.2.5,28.83.63-42.26-44.85-99.53-94.64-165.93-80.71ZM1817.61,62.85c-24.35,12.26-40.75,35.94-48.2,61.67-13.72,41.34-32.51,84.68-72,107.44,22.84-30.63,47.57-62.25,50.96-101.96-33.51,13.3-58.24,40.54-87.65,60.33-32.93,21.04-63.38,45.77-97.19,65.39-50.79-21.92-105.56-32.05-158.27-48.16-17.66-7.07-33.76,5.56-48.45,13.6-12.59,8.12-28.91,14.6-33.55,30.25-13.81,38.91-24.98,78.7-36.78,118.19-16.07,53.55-22.17,109.45-37.28,163.21-36.73-9.16-73.51-18.16-110.08-27.82-11.97,36.36-33.26,80.29-9.2,116.14,53.85,94.68,131.79,172.12,195.51,259.73-26.02,21.67-59.12,31.09-89.53,44.64,26.15,37.86,62.34,66.86,96.6,96.9,6.4-47.44,4.64-100.24,37.11-139.15-5.1,40.5-16.32,80.5-12.09,121.79,1.34,105.35,69.03,212.41,173.17,241.95,92.13,31.21,195.38,11.97,275.25-41.63-13.89-13.85-24.06-30.88-29.96-49.54,30.96,25.77,60.71,54.39,99.49,68.24,97.78,37.78,218.02,26.27,300.69-40.83,51.5-41.5,77.44-109.07,77.11-174.17-13.68,7.03-29.58,11.42-40.54,22.55-1.67,68.32-52.17,133.71-120.2,147.14-89.32,13.26-179.99-30.5-236.8-98.24-16.36-16.82-18.79-46.06-43.39-54.1-59.41-25.35-114.18-68.03-140.62-128.4-22.72,27.99-33.14,68.74-17.4,102.55,8.12,21.13,25.44,36.27,42.21,50.54-42.93-14.02-76.52-58.99-70.87-105.06.04-59.95,61.96-100.16,117.44-99.37-19.29,12.72-40.37,23.09-56.61,39.91,29.66,50.83,78.61,86.86,131.79,110.24,132.12,60,289.69,44.56,416.29-22.17,66.86-37.28,130.83-87.06,165.51-157.02,40.04-71.17,36.57-160.7,2.01-233.29-21.04-41-44.68-82.34-81.5-111.29-.84,27.95-3.18,57.65-20,81.17,13.22-59.58,11.34-129.15-29.58-177.98-24.22-32.17-79.2-33.01-102.71.38-30.17,35.27-24.27,84.01-30.37,126.85-7.36-26.07-6.32-53.39-5.48-80.2,1.3-25.19,17.07-45.98,29.41-66.94-37.03-10.42-75.77-2.22-112.5,5.4-39.87,7.28-72.05,32.72-105.56,53.55,29.16-37.95,73.22-62.21,118.78-74.85-26.73-77.48-97.65-128.44-170.32-159.07-22.89-13.18-37.7-36.27-57.74-53.05-29.87,16.53-40.25,50.5-62.34,74.3,4.39-29.2,16.4-58.53,39.08-78.24,9.83-7.53,24.48-14.31,35.98-6.15,15.31,9.71,25.44,25.27,37.74,38.24-2.18-25.14-2.18-51.59-13.35-74.72-8.91-19.2-35.1-29.5-54.01-18.91ZM1605.53,144.35c-66.15,9.12-133.3,23.97-193.79,52.67-4.27.71-8.41,1.59-12.59,2.47,50.83-1.72,99.37,15.15,146.89,30.92,7.82,2.18,17.32,6.23,24.48-.04,45.27-32.84,93.42-61.59,138.74-94.43-34.64-.21-69.87,1.38-103.72,8.41ZM1154.94,220.83c-26.57,8.95-46.52,33.55-50.79,61.13-6.15,54.72,4.18,109.36,16.53,162.5,37.82-95.22,106.23-176.89,191.41-233.41-51.88-8.49-107.27-8.95-157.14,9.79ZM1144.85,488.72c30.92,10.25,62.97,16.15,94.09,25.65,10.63-79.99,23.93-160.49,52.26-236.43-57.28,63.8-110.87,132.12-146.35,210.78ZM954.11,622.14c-21.67,23.89-25.94,62.34-4.06,87.57,46.15,60.54,114.47,99.99,182.54,131.54-4.31-7.87-6.36-18.2-14.52-23.01-22.13-59.49-46.48-120.95-42.13-185.64-2.51-33.18,7.28-65.35,7.95-98.32,5.27-4.85,7.82-11.76,11.38-17.82-51.38,28.66-102.08,61.17-141.16,105.68ZM1115.9,641.26c8.95,98.44,49.58,194.05,110.95,271.19,24.1-14.52,51.13-22.8,76.61-34.47-62.3-79.12-136.43-149.11-187.56-236.72ZM1123.52,1000.52c-2.68,25.06,9.46,53.09,34.64,61.54,52.59,19.5,109.53,6.48,162.29-5.44-66.56-46.77-121-109.36-166.68-176.39-13.81,38.95-26.61,78.91-30.25,120.28ZM2083.45,1069.68c-21.25,2.09-43.34.75-63.22,10.04,4.64,10.42,9.5,20.79,14.39,31.13-16.61-5.69-31.46-15.56-41.34-30.29-5.77-10.75-18.66-8.74-28.83-9.41-34.77-.46-67.57-13.18-101.16-20.38,49.45,72.21,141.2,125.1,230.07,103.72,49.95-12.22,93.55-60.08,92.5-112.71-33.68,10.84-67.53,21.67-102.42,27.91ZM1332,1125.87c-14.48,15.31-36.44,30.63-35.86,53.85,13.35,43.09,57.28,64.1,90.5,89.95l1.17,3.43c4.52-23.76,9.12-47.57,15.56-70.87-26.48-25.73-46.02-58.2-57.65-93.17-4.94,5.31-9.96,10.59-13.72,16.82ZM1425.34,1214.27c-10.08,40.88-20.42,81.71-35.48,121.12,28.74,26.02,53.13,56.36,78.49,85.56,11.42,13.93,26.11,27.36,27.4,46.52-60.12,1.8-120.41,2.22-180.53.46,5.56-3.93,11.25-7.66,16.53-11.97,48.62-7.74,98.53-6.36,147.19.42-27.24-31.8-55.85-62.42-84.3-93.13.67-1.42,2.05-4.27,2.76-5.69-3.14-1.88-9.37-5.69-12.47-7.57-24.56,38.95-52,76.44-85.77,107.98,19.33,29.41,31,62.8,46.23,94.3,17.2,43.47,39.83,84.81,54.01,129.36-21.04,1.92-39.83-8.53-58.66-16.07-62.13-27.57-126.85-50.54-184.51-86.9-12.68,1.09-29.33,12.89-24.39,27.82,11.42,64.51,17.95,129.74,27.45,194.55,2.18,18.91,1.05,37.99.8,56.98-2.01,1.3-6.11,3.93-8.16,5.23-56.31-58.24-112.25-117.31-161.58-181.83-14.31,9.37-35.81,14.31-40.42,33.05-18.58,73.89-41.71,146.6-66.15,218.73-4.43-.54-8.83-1.09-13.22-1.63-19.79-58.32-40.88-116.27-59.28-174.97-1.34-9.92-12.68-8.24-17.32-1.84-45.48,48.03-86.02,101-134.55,146.1-2.89-.67-8.66-2.01-11.55-2.68-3.26-28.45,2.13-56.77,9.12-84.22,9.29-36.36,14.02-74.68,32.72-107.86-8.07-4.9-15.56-12.47-25.31-13.3-55.98,27.53-103.97,68.82-160.99,94.47-12.93-15.98-1.8-35.44,3.81-51.96,18.49-42.17,34.14-86.31,59.58-124.89-28.83-30.79-49.58-68.95-81.33-96.73l1.3,4.73c-17.28,32.72-36.06,64.6-52.47,97.73,26.44-16.86,54.64-30.58,83.17-43.39,2.38,3.22,4.81,6.48,7.24,9.75-25.86,16.69-54.85,27.53-80.96,43.76-7.61,5.19-16.78,6.28-25.73,4.94,6.4-48.7,39.33-89.49,66.4-128.99-25.52-25.31-48.7-55.23-82-70.62,7.99,18.83,27.78,27.53,40.25,42.88-28.99,9.2-55.81,23.85-84.6,33.51.21-31.25,19.25-57.53,31.09-85.27-95.18-58.74-214.42-60.71-320.06-33.3-20.21,6.15-44.01,9.92-56.31,29.2,29.79,20.08,67.32,16.94,100.45,27.61,46.94,12.01,87.32,41.5,119.62,76.86,32.01,36.27,52.21,80.66,74.64,123-.38-31.13-15.9-59.12-20.17-89.53,49.66,91.79,57.78,198.56,92.8,295.71,34.35,73.47,78.28,142.46,129.74,205.17,66.82,74.47,146.35,137.86,235.3,183.96,4.98-35.9-1.26-72.3,4.69-108.11,7.41-56.27,20.42-114.09,50.33-162.96-16.15,63.13-26.07,128.19-24.31,193.5,3.05,118.44,30.75,240.23,102.13,337.05,14.6,22.89,36.57,39.54,53.13,60.83-50.71-21.25-87.02-64.26-120.28-106.31-32.13,20.84-80.5,27.7-93.42,68.87-21.67,57.65-44.64,114.89-72.3,169.99-23.3,56.82-61.84,109.66-66.65,172.37-5.48,48.91,31.92,96.31,80.04,104.47-1.42-9.62-5.48-20.25.79-29.04,26.36-50.25,98.61-76.86,147.1-41.67,3.89-43.09-37.45-65.1-72.76-74.93,28.16-1.8,58.24,10.29,73.89,34.47,10.71,18.83,13.26,40.88,18.95,61.5,20.12-15.73,42.63-33.55,69.7-31.88,16.74.84,28.28,14.31,39.62,25.02,31-32.05-5.02-80.16-42.67-81.71-15.65-.88-31.34.08-46.98-1.38,20.04-11.25,43.22-12.13,65.35-7.91-51.34-36.82-118.28-31.55-178.15-33.85,40.16-13.39,82.8-6.82,124.01-11.97-35.52-13.35-74.1-16.36-111.46-21.84,32.63-2.3,65.69-3.6,98.15,1.42,8.28,1.76,16.44-.54,24.31-3.14-25.19-19.45-58.24-23.47-84.35-41.46,21.63,1.05,41.25,13.14,62.92,12.93,16.27-4.35,29.04-16.19,42.72-25.35-51.88-31.76-104.39-71.92-126.23-130.91,47.49,46.06,98.11,93.34,162.46,114.18,57.69,21.17,122.46,28.32,182.04,10.84-21.17-17.78-46.44-32.09-60.79-56.65,29.83,18.2,62,34.89,97.15,39.2,17.74-3.68,31.63-17.15,45.81-27.66,41.42-37.32,72.34-85.01,95.22-135.51,42.42-93.63,63.51-197.06,60.29-299.81,2.22-85.43-17.99-170.36-54.39-247.35,48.57,71.29,67.99,157.48,81.75,241.41,38.2-45.39,75.22-93.09,99.99-147.27,18.53-70.33,29.04-143.13,56.61-210.95,6.32-19.45,18.99-36.98,22.26-57.23-20.88-36.69-48.45-72.21-55.06-114.97,28.83,43.01,55.1,88.53,91.75,125.6,12.64,12.47,29.41,25.81,48.36,21.67,18.37-6.99,30.37-23.64,42.42-38.32,30.75-37.19,53.85-80.12,72.71-124.34,6.53-12.64,1.55-26.23-3.51-38.28,24.6,5.98,50.21,13.18,75.6,7.07,19.16-3.56,43.43-10.84,48.11-32.72.88-18.24-13.22-35.77-30.96-39.75-24.98-5.65-50.21,1.51-74.64,6.36-1.3-39.96,45.48-35.31,67.44-55.31,6.82-18.28-12.34-34.89-28.99-36.78-27.49,1.55-58.2,11.59-72.67,36.86-11.8,18.58-14.48,40.79-17.2,62.13-54.35,37.91-97.36,90.24-126.69,149.49,1-22.76,11.34-43.05,19.16-63.89-7.36-25.56-26.57-45.39-40.12-67.78,19.79,11.55,34.18,29.66,48.99,46.73,9.54-38.28,18.79-76.81,33.72-113.42,13.72-33.14,6.95-73.68,31.63-102.21,25.4-30.17,57.57-53.68,87.4-79.12,21-19.33,50.16-3.6,74.85-3.01-3.89-15.44-5.98-31.55-12.43-46.19-9.87-6.4-23.55-2.26-34.89-3.81-36.4.42-72-19.16-108.19-8.03-91.92,15.44-190.74-6.44-263.29-66.36ZM1739.5,1265.69c47.74,12.26,97.86,9.46,145.85.17,6.07-.46,10.59-4.52,15.15-8.16-31.84-3.35-60.58-17.15-86.9-34.6-22.89,16.99-47.03,32.72-74.1,42.59ZM1152.55,1368.11c-16.32,52.42-3.72,107.44,1.8,160.49,4.98-3.26,9.96-6.53,14.89-9.79,67.02-50.21,132.38-104.05,183.79-170.62l-.04-2.47c-45.98-6.15-91.96-12.13-138.02-17.53-26.86-3.43-54.68,13.76-62.42,39.91ZM1749.92,1372.13c-18.87,20.38-41.71,37.28-57.57,60.25-14.98,22.26-13.97,50-20.88,74.97-12.22,39.33-27.45,77.74-37.86,117.56,18.12-15.56,34.01-33.72,54.14-46.86,8.53-6.95,21.46-12.72,21.17-25.52,1.84-24.64,11.09-49.37,28.32-67.36,22.51-19.16,54.39-28.62,83.51-22.13,24.85,6.95,33.05,39.58,21.8,60.58-14.73,15.94-40.67,9.62-55.69,25.14,22.43-.92,46.48-9.66,67.74,1.67,16.15,6.86,24.98,22.8,34.81,36.4-13.47-72.3-21.46-145.64-38.24-217.35-3.39-22.76-30.83-20.42-47.99-24.6-22.34-6.44-37.99,14.77-53.26,27.24ZM2095.25,1382.59c-29.08,24.22-20.75,68.74-48.2,94.22-26.07,37.32-58.45,73.84-69.12,118.9-30.75-23.26-50.5-57.53-80.83-81.17,2.55,48.16,17.03,94.97,19.37,143.3,2.09,18.12-1.88,41.55,15.69,53.26,20.33,15.02,52.13,29.04,74.26,9.92,30.83-31.04,50.58-70.79,72.42-108.24,16.86-35.1,35.81-77.02,15.81-114.93,14.56,6.32,28.95,15.02,45.39,14.31,26.57-.75,58.62,6.65,77.9-16.86-11.38-48.53-72.25-46.61-111.54-43.89,16.19-33.72,57.9-29.66,85.1-49.33-.84-11.42,1-25.77-10.59-32.51-26.69-19.25-62.46-5.15-85.68,13.01ZM491.09,1472.54c1.21-.17,3.68-.42,4.94-.59,16.57,33.3,41.46,62.13,65.56,90.2.63,4.35,1.46,8.66,2.55,12.97,12.3-33.39,24.1-75.02,4.98-107.9-23.64-13.26-54.05-3.81-78.03,5.31ZM1164.81,1572.53c72.97,24.48,142.08,58.66,212.45,89.45-32.97-62.46-64.39-126.6-89.12-192.96-39.24,36.69-81.75,69.58-123.34,103.51ZM930.27,1548.39c-35.31,42.42-45.44,98.36-57.65,150.58,71.79-28.91,135.01-74.43,201.79-112.75-31.55-22.76-63.18-47.53-100.79-59.16-17.91-6.19-32.72,9.08-43.34,21.34ZM696.6,1603.32c-23.14,9.83-46.78,19.37-67.65,33.6l4.64-.75c33.47,24.14,71.46,40.67,108.36,58.74,8.28,3.1,16.57,6.19,24.94,9.25-10.17-29.58-13.97-61.33-27.36-89.7-7.15-16.74-28.28-17.99-42.93-11.13ZM1866.64,1634.66c-29.41,18.62-66.31,16.9-98.32,6.69-4.23,37.4-22.97,70.92-38.99,104.34-20.25,34.68-43.43,70.2-77.99,92.17-30.25,18.45-65.1-7.53-82.59-32.22-16.94,14.48-18.74,38.28-27.28,57.65-25.81,64.64-34.64,134.22-53.85,200.74-20.58,48.74-53.18,91.17-83.09,134.43-11,17.03-31.84,30.5-30.37,53.05-4.06,88.86-21.5,177.1-54.98,259.69,103.93-9,204.5-44.89,291.74-101.83-31.46-7.91-61.88-19.91-88.91-38.03-21.21-14.56-46.48-25.27-61.42-47.15,54.01,25.6,110.37,48.11,169.82,57.19,8.91,1.76,16.82-3.64,23.09-9.29,39.45-37.86,78.36-77.15,107.73-123.55-48.07-4.69-95.31-16.86-139.91-35.23-27.03-13.22-56.15-25.06-76.48-48.16,70.37,31.5,147.44,43.6,223.37,52.93,6.74.92,15.48,1.46,18.62-6.15,42.47-71.17,66.23-151.24,87.48-230.78-68.36-3.47-139.7-5.1-203.08-34.06,65.85,9.37,133.42,13.26,199.48,2.3,10.25-1.38,10.79-13.6,12.93-21.46,10.96-69.03,20.96-138.78,17.86-208.81-44.26,11.46-92.63,15.94-134.84-5.4,46.02-1.05,93.93.84,135.76-21.97-6.48-31.92-4.6-64.97-12.55-96.69-5.98,13.93-9.16,31.25-23.26,39.58ZM1007.17,1671.35v10.29c2.05,1.42,6.11,4.23,8.16,5.65,43.05,47.03,83.38,96.56,128.82,141.37-6.53-76.06-27.95-150.58-26.61-227.18l-.75,3.22c-38.41,18.74-71.88,46.36-109.62,66.65ZM577.32,1623.28c-19.37,46.61-44.31,90.87-59.95,139.03,46.69-23.68,87.73-58.62,137.02-76.69-27.7-18.24-52.21-40.58-77.07-62.34ZM700.87,1712.52c-1.38,4.64-2.76,9.33-4.06,14.06-16.19,48.16-23.47,98.57-32.59,148.36,35.48-39.12,71-78.15,107.27-116.48,4.52-3.81,9.04-7.61,13.6-11.42-28.7-9.96-57.61-19.71-84.22-34.52ZM825.46,1747.37c15.86,52.88,34.89,104.76,52.67,157.02,10.17-49.08,29.71-95.6,41.17-144.34,3.56-17.15,11.17-33.01,19.16-48.45-35.48,17.57-73.13,32.84-113,35.77ZM426.24,1994.05c66.77,163.46,189.57,304.66,344.7,389.55,5.9,6.07,11.84-1.88,7.74-7.66-11.46-29.2-19.04-59.62-23.05-90.7-.67-17.66-18.03-25.23-31.21-32.63-133.05-71.46-243-183.21-315.67-315.29-.42,20.33,9.96,38.45,17.49,56.73ZM1867.15,2121.74c-26.36,83.51-74.01,159.4-134.76,222.16,5.94,28.28,8.91,57.99,21.63,84.22,19.08,25.56,46.82,42.76,68.99,65.35,25.81,28.91,50.58,61.33,58.03,100.33,8.24,44.56,20.33,88.45,36.9,130.66,7.03,16.82,18.32,36.15,38.45,38.07,31.09,5.4,61.08-8.58,84.6-27.95,49.49-34.64,70.66-93.68,97.86-144.97-5.15,35.6-18.07,69.24-33.39,101.54,55.02-29.96,94.34-79.74,133.3-127.31-6.32-1.42-12.59-2.76-18.83-4.02,61.96-20.54,122.21-78.28,112.92-148.4-13.6-25.23-46.15-30.29-72.21-32.76,27.74-9.33,58.57-7.28,81.38,12.38,7.49-25.23-2.09-60.92-29.04-70.16-35.14-8.79-71.84,14.35-93.76,40.25,3.68,20.96,14.94,40.21,17.07,61.79,10.71,47.28-22.13,102.34-71.58,108.7,32.3-22.97,58.41-62.26,54.6-103.01-35.14-24.77-77.44,1.46-113.38,11,25.56-28.99,65.6-38.16,102.29-43.6-11.63-25.14-17.32-54.72-37.7-74.64-20.92-11.71-40.29,11.21-51.75,26.4-27.65,34.77-24.31,80.83-26.86,122.5-23.43-48.16-15.06-107.48,18.62-148.61-52.34,8.91-86.1,57.9-101.16,105.43-11.55,25.52-8.53,55.81-24.68,79.41-15.81,24.39-25.4,52.13-33.64,79.83-4.94,15.77-1.09,33.55-9.5,48.32-9.25-48.78,6.99-97.69,34.73-137.56,13.76-17.61,8.37-40.96,11.51-61.59-22.09-2.93-44.31-.38-66.48-1.3,16.86-8.7,35.77-11.55,54.51-12.38-17.49-90.29,0-181.37,9.25-271.45,3.89-20.21-8.62-38.49-21.46-52.67-21.71-22.97-44.14-45.77-71.12-62.46-10.17,28.28-14.85,58.24-25.31,86.48ZM673.05,2950.38c40.71,24.64,89.45,26.57,135.64,23.72,5.98-31.92-13.22-72.71-49.12-73.89-33.85,4.18-68.41,19.96-86.52,50.16ZM832.11,2939.46c29.5,15.23,63.64,9.96,95.52,10-7.28-17.07-13.81-41.17-34.73-45.14-24.6.46-46.02,16.53-60.79,35.14Z"/><path class="cls-1" d="M1342.5,350.06c40.04-23.97,82.59-47.11,129.07-55.35-40.75,28.62-93.22,40.04-127.56,77.61-12.01,36.82-8.33,76.69-4.52,114.64-18.2-41.84-32.93-100.41,3.01-136.89Z"/><path class="cls-1" d="M1469.52,355.8c36.48-5.1,75.69-10.59,110.91,3.51-42.42-5.73-88.57.04-125.81,22.22-22.17,12.59-25.02,41.63-19.79,64.18,3.18,30.58,16.61,58.32,27.03,86.81-34.81-31.8-52.84-79.24-54.01-125.77,1.51-31.29,35.27-45.39,61.67-50.96Z"/><path class="cls-1" d="M2186.08,430.94c4.39-15.23,12.8-32.84,30.04-36.11,12.01-2.72,20.92,8.83,25.27,18.53,15.48,36.11,9.54,76.98-1.42,113.42-7.15-36.69,2.3-78.24-20.5-110.75-26.48,27.91-20.25,68.61-34.47,101.5-12.22-27.7-6.02-58.49,1.09-86.6Z"/><path class="cls-1" d="M1622.44,491.9c51.63-14.56,111.5-3.77,149.53,35.86-53.22-27.57-123.67-32.51-171.91,7.87-47.7,36.23-56.94,104.89-33.64,157.77-30.17,5.19-65.43,1.17-83.55-26.61,17.28,1.42,39.41,17.4,53.85,8.12-8.12-31.04-11-64.31-1.38-95.43,12.72-41.09,47.15-73.09,87.11-87.57Z"/><path class="cls-1" d="M1896.14,543.57c43.51-46.98,136.35-34.35,160.7,26.07-28.83-32.8-75.02-48.87-117.1-33.43-37.45,12.13-59.45,57.19-44.56,93.88-29.54-18.53-22.26-65.52.96-86.52Z"/><path class="cls-1" d="M1954.96,561.1c37.95-15.73,84.22,13.01,84.97,54.47-17.03-21.13-40.46-42.38-69.66-39.58-10.92-.8-25.14,9.83-17.45,21.25,11.05,17.07,32.26,22.05,49.45,30.67-23.18.92-49.41-3.51-65.48-21.67-12.72-16.44-2.8-42.42,18.16-45.14Z"/><path class="cls-1" d="M1519.39,734.97c36.98-11.84,76.27-10.08,114.59-9.62,24.18.67,47.99,8.91,67.32,23.55-59.91-13.47-121.2-10.79-181.91-13.93Z"/><path class="cls-1" d="M2474.38,2415.86c72.55,159.57-26.86,363.66-189.69,419.09,55.94-40.54,110.03-86.9,143.71-148.44,47.15-81.25,58.91-178.61,45.98-270.65Z"/><path class="cls-1" d="M438.42,2482.84c20.75-23.76,42.88-47.95,72-61.38-107.4,107.11-162.54,263.04-146.56,413.99,1.88,26.99,9.12,53.26,11.59,80.16-60.21-140.83-32.84-313.95,62.97-432.77Z"/><path class="cls-1" d="M2081.19,2552.92c-3.97,24.48-19.71,44.43-31,65.85-13.26,20.92-24.43,44.22-44.22,59.95,20.04-44.72,50.71-83.59,75.22-125.81Z"/><path class="cls-1" d="M428.08,2707.51c13.81-59.62,44.56-120.33,98.36-152.83-75.77,91.75-98.4,216.85-83.76,332.7,2.84,36.44,13.56,71.54,20.46,107.27-46.06-86.86-56.15-191.58-35.06-287.13Z"/><path class="cls-1" d="M2262.1,2780.06c59.87-49.2,106.23-115.31,129.91-189.23,6.86,23.81-1.05,48.16-9.66,70.33-31.34,68.78-92.46,122.13-160.37,153.09,11.97-12.97,26.61-22.93,40.12-34.18Z"/><path class="cls-5" d="M1476.55,32.6c66.4-13.93,123.67,35.86,165.93,80.71-9.62-.13-19.25-.33-28.83-.63-28.03-33.22-61.29-67.57-106.31-74.43-24.77-4.27-45.69,12.89-63.13,27.95-32.72,30.08-57.4,68.03-76.15,108.07-3.1,2.72-6.23,5.27-9.54,7.66,19.29-60.75,55.73-125.14,118.03-149.32Z"/><path class="cls-5" d="M1411.74,197.02c60.5-28.7,127.65-43.55,193.79-52.67-17.78,6.65-36.15,11.59-54.64,15.73-46.73,11.05-91.12,31.55-139.15,36.94Z"/><path class="cls-5" d="M1154.94,220.83c49.87-18.74,105.26-18.28,157.14-9.79-85.18,56.52-153.59,138.19-191.41,233.41-12.34-53.13-22.68-107.77-16.53-162.5,4.27-27.57,24.22-52.17,50.79-61.13Z"/><path class="cls-5" d="M1144.85,488.72c35.48-78.66,89.07-146.98,146.35-210.78-28.32,75.94-41.63,156.43-52.26,236.43-31.13-9.5-63.18-15.4-94.09-25.65Z"/><path class="cls-5" d="M954.11,622.14c39.08-44.52,89.78-77.02,141.16-105.68-3.56,6.07-6.11,12.97-11.38,17.82-46.06,25.86-87.36,60.54-120.2,101.92-21.97,29.45,1.17,65.18,22.84,87.06,38.87,37.65,82.5,71.67,131.54,94.97,8.16,4.81,10.21,15.15,14.52,23.01-68.07-31.55-136.39-71-182.54-131.54-21.88-25.23-17.61-63.68,4.06-87.57Z"/><path class="cls-5" d="M1115.9,641.26c51.13,87.61,125.26,157.6,187.56,236.72-25.48,11.67-52.51,19.96-76.61,34.47-61.38-77.15-102-172.75-110.95-271.19Z"/><path class="cls-5" d="M1123.52,1000.52c3.64-41.38,16.44-81.33,30.25-120.28,45.69,67.02,100.12,129.61,166.68,176.39-52.76,11.92-109.7,24.94-162.29,5.44-25.19-8.45-37.32-36.48-34.64-61.54Z"/><path class="cls-5" d="M1332,1125.87c-7.32,14.52-22.17,30.17-13.81,47.32,7.53,19.12,19.71,36.15,33.47,51.25,12.84,14.06,30.63,25.44,34.98,45.23-33.22-25.86-77.15-46.86-90.5-89.95-.59-23.22,21.38-38.53,35.86-53.85Z"/><path class="cls-5" d="M1152.55,1368.11c7.74-26.15,35.56-43.34,62.42-39.91,46.06,5.4,92.04,11.38,138.02,17.53l.04,2.47c-53.59-1-108.4-13.64-161.16.71-19.79,4.64-27.91,25.31-29.66,43.55-3.6,42.13,3.39,84.39,7.03,126.35-4.94,3.26-9.92,6.53-14.89,9.79-5.52-53.05-18.12-108.07-1.8-160.49Z"/><path class="cls-5" d="M1331.74,1455.97c28.95-24.64,46.69-59.03,62.88-92.71,28.45,30.71,57.07,61.33,84.3,93.13-48.66-6.78-98.57-8.16-147.19-.42Z"/><path class="cls-5" d="M491.09,1472.54c23.97-9.12,54.39-18.58,78.03-5.31,19.12,32.88,7.32,74.51-4.98,107.9-1.09-4.31-1.92-8.62-2.55-12.97,1.76-29.33,14.48-61,1.76-89.2-20.5-11.17-45.27-2.18-67.32-1-1.26.17-3.72.42-4.94.59Z"/><path class="cls-5" d="M1164.81,1572.53c41.59-33.93,84.09-66.82,123.34-103.51,24.73,66.36,56.15,130.49,89.12,192.96-70.37-30.79-139.49-64.97-212.45-89.45Z"/><path class="cls-5" d="M434.28,1616.17c16.4-33.14,35.19-65.02,52.47-97.73,4.48,20.92,18.45,37.49,30.71,54.35-28.53,12.8-56.73,26.53-83.17,43.39Z"/><path class="cls-5" d="M930.27,1548.39c10.63-12.26,25.44-27.53,43.34-21.34,37.61,11.63,69.24,36.4,100.79,59.16-66.77,38.32-129.99,83.84-201.79,112.75,12.22-52.21,22.34-108.15,57.65-150.58Z"/><path class="cls-5" d="M696.6,1603.32c14.64-6.86,35.77-5.61,42.93,11.13,13.39,28.37,17.2,60.12,27.36,89.7-8.37-3.05-16.65-6.15-24.94-9.25-2.18-23.26-2.05-46.98-7.91-69.74-2.13-9.37-9.62-19.79-20.42-18.28-28.53,4.35-50.71,27.19-80.04,29.29l-4.64.75c20.88-14.22,44.52-23.76,67.65-33.6Z"/><path class="cls-5" d="M1007.17,1671.35c37.74-20.29,71.21-47.9,109.62-66.65-2.8,11.09-3.85,24.77-15.1,30.88-28.37,17.86-56.19,36.86-86.35,51.71-2.05-1.42-6.11-4.23-8.16-5.65v-10.29Z"/><path class="cls-5" d="M577.32,1623.28c24.85,21.76,49.37,44.1,77.07,62.34-49.29,18.07-90.33,53.01-137.02,76.69,15.65-48.16,40.58-92.42,59.95-139.03Z"/><path class="cls-5" d="M700.87,1712.52c26.61,14.81,55.52,24.56,84.22,34.52-4.56,3.81-9.08,7.61-13.6,11.42-25.65-8.83-50.21-20.29-74.68-31.88,1.3-4.73,2.68-9.41,4.06-14.06Z"/><path class="cls-5" d="M825.46,1747.37c39.87-2.93,77.53-18.2,113-35.77-7.99,15.44-15.61,31.29-19.16,48.45-11.46,48.74-31,95.27-41.17,144.34-17.78-52.26-36.82-104.14-52.67-157.02Z"/><path class="cls-2" d="M1444.21,66.19c17.45-15.06,38.37-32.22,63.13-27.95,45.02,6.86,78.28,41.21,106.31,74.43-84.05,9.66-168.98,23.85-245.59,61.59,18.74-40.04,43.43-77.99,76.15-108.07Z"/><path class="cls-2" d="M1605.53,144.35c33.85-7.03,69.07-8.62,103.72-8.41-45.31,32.84-93.47,61.59-138.74,94.43-7.15,6.28-16.65,2.22-24.48.04-47.53-15.77-96.06-32.63-146.89-30.92,4.18-.88,8.33-1.76,12.59-2.47,48.03-5.4,92.42-25.9,139.15-36.94,18.49-4.14,36.86-9.08,54.64-15.73Z"/><path class="cls-2" d="M963.7,636.19c32.84-41.38,74.14-76.06,120.2-101.92-.67,32.97-10.46,65.14-7.95,98.32-4.35,64.68,20,126.14,42.13,185.64-49.03-23.3-92.67-57.32-131.54-94.97-21.67-21.88-44.81-57.61-22.84-87.06Z"/><path class="cls-2" d="M1332,1125.87c3.77-6.23,8.79-11.51,13.72-16.82,11.63,34.98,31.17,67.44,57.65,93.17-6.44,23.3-11.05,47.11-15.56,70.87l-1.17-3.43c-4.35-19.79-22.13-31.17-34.98-45.23-13.76-15.1-25.94-32.13-33.47-51.25-8.37-17.15,6.48-32.8,13.81-47.32Z"/><path class="cls-2" d="M1191.88,1348.91c52.76-14.35,107.57-1.72,161.16-.71-51.42,66.56-116.77,120.41-183.79,170.62-3.64-41.96-10.63-84.22-7.03-126.35,1.76-18.24,9.87-38.91,29.66-43.55Z"/><path class="cls-2" d="M496.03,1471.95c22.05-1.17,46.82-10.17,67.32,1,12.72,28.2,0,59.87-1.76,89.2-24.1-28.07-48.99-56.9-65.56-90.2Z"/><path class="cls-2" d="M1116.78,1604.7l.75-3.22c-1.34,76.61,20.08,151.12,26.61,227.18-45.44-44.81-85.77-94.34-128.82-141.37,30.17-14.85,57.99-33.85,86.35-51.71,11.25-6.11,12.3-19.79,15.1-30.88Z"/><path class="cls-2" d="M633.59,1636.17c29.33-2.09,51.5-24.94,80.04-29.29,10.79-1.51,18.28,8.91,20.42,18.28,5.86,22.76,5.73,46.48,7.91,69.74-36.9-18.07-74.89-34.6-108.36-58.74Z"/><path class="cls-2" d="M664.22,1874.94c9.12-49.79,16.4-100.2,32.59-148.36,24.48,11.59,49.03,23.05,74.68,31.88-36.27,38.32-71.79,77.36-107.27,116.48Z"/><path class="cls-3" d="M1817.61,62.85c18.91-10.59,45.1-.29,54.01,18.91,11.17,23.14,11.17,49.58,13.35,74.72-12.3-12.97-22.43-28.53-37.74-38.24-11.51-8.16-26.15-1.38-35.98,6.15-22.68,19.71-34.68,49.03-39.08,78.24,22.09-23.81,32.47-57.78,62.34-74.3,20.04,16.78,34.85,39.87,57.74,53.05,72.67,30.63,143.59,81.58,170.32,159.07-45.56,12.64-89.62,36.9-118.78,74.85,33.51-20.84,65.69-46.27,105.56-53.55,36.73-7.61,75.48-15.81,112.5-5.4-12.34,20.96-28.12,41.75-29.41,66.94-.84,26.82-1.88,54.14,5.48,80.2,6.11-42.84.21-91.58,30.37-126.85,23.51-33.39,78.49-32.55,102.71-.38,40.92,48.82,42.8,118.4,29.58,177.98,16.82-23.51,19.16-53.22,20-81.17,36.82,28.95,60.46,70.29,81.5,111.29,34.56,72.59,38.03,162.12-2.01,233.29-34.68,69.95-98.65,119.74-165.51,157.02-126.6,66.73-284.16,82.17-416.29,22.17-53.18-23.39-102.13-59.41-131.79-110.24,16.23-16.82,37.32-27.19,56.61-39.91-55.48-.79-117.4,39.41-117.44,99.37-5.65,46.06,27.95,91.04,70.87,105.06-16.78-14.27-34.1-29.41-42.21-50.54-15.73-33.81-5.31-74.56,17.4-102.55,26.44,60.37,81.21,103.05,140.62,128.4,24.6,8.03,27.03,37.28,43.39,54.1,56.82,67.74,147.48,111.5,236.8,98.24,68.03-13.43,118.53-78.82,120.2-147.14,10.96-11.13,26.86-15.52,40.54-22.55.33,65.1-25.6,132.67-77.11,174.17-82.67,67.11-202.91,78.61-300.69,40.83-38.78-13.85-68.53-42.47-99.49-68.24,5.9,18.66,16.07,35.69,29.96,49.54-79.87,53.59-183.13,72.84-275.25,41.63-104.14-29.54-171.83-136.6-173.17-241.95-4.23-41.29,6.99-81.29,12.09-121.79-32.47,38.91-30.71,91.71-37.11,139.15-34.27-30.04-70.46-59.03-96.6-96.9,30.42-13.56,63.51-22.97,89.53-44.64-63.72-87.61-141.66-165.05-195.51-259.73-24.06-35.86-2.76-79.79,9.2-116.14,36.57,9.66,73.34,18.66,110.08,27.82,15.1-53.76,21.21-109.66,37.28-163.21,11.8-39.5,22.97-79.28,36.78-118.19,4.64-15.65,20.96-22.13,33.55-30.25,14.69-8.03,30.79-20.67,48.45-13.6,52.72,16.11,107.48,26.23,158.27,48.16,33.81-19.62,64.26-44.35,97.19-65.39,29.41-19.79,54.14-47.03,87.65-60.33-3.39,39.7-28.12,71.33-50.96,101.96,39.5-22.76,58.28-66.1,72-107.44,7.45-25.73,23.85-49.41,48.2-61.67ZM1342.5,350.06c-35.94,36.48-21.21,95.06-3.01,136.89-3.81-37.95-7.49-77.82,4.52-114.64,34.35-37.57,86.81-48.99,127.56-77.61-46.48,8.24-89.03,31.38-129.07,55.35ZM1469.52,355.8c-26.4,5.56-60.16,19.66-61.67,50.96,1.17,46.52,19.2,93.97,54.01,125.77-10.42-28.49-23.85-56.23-27.03-86.81-5.23-22.55-2.38-51.59,19.79-64.18,37.24-22.17,83.38-27.95,125.81-22.22-35.23-14.1-74.43-8.62-110.91-3.51ZM2186.08,430.94c-7.11,28.12-13.3,58.91-1.09,86.6,14.23-32.88,7.99-73.59,34.47-101.5,22.8,32.51,13.35,74.05,20.5,110.75,10.96-36.44,16.9-77.32,1.42-113.42-4.35-9.71-13.26-21.25-25.27-18.53-17.24,3.26-25.65,20.88-30.04,36.11ZM1622.44,491.9c-39.96,14.48-74.39,46.48-87.11,87.57-9.62,31.13-6.74,64.39,1.38,95.43-14.43,9.29-36.57-6.69-53.85-8.12,18.12,27.78,53.39,31.8,83.55,26.61-23.3-52.88-14.06-121.54,33.64-157.77,48.24-40.37,118.69-35.44,171.91-7.87-38.03-39.62-97.9-50.41-149.53-35.86ZM1896.14,543.57c-23.22,21-30.5,67.99-.96,86.52-14.89-36.69,7.11-81.75,44.56-93.88,42.09-15.44,88.28.63,117.1,33.43-24.35-60.41-117.19-73.05-160.7-26.07ZM1954.96,561.1c-20.96,2.72-30.88,28.7-18.16,45.14,16.07,18.16,42.3,22.59,65.48,21.67-17.2-8.62-38.41-13.6-49.45-30.67-7.7-11.42,6.53-22.05,17.45-21.25,29.2-2.8,52.63,18.45,69.66,39.58-.75-41.46-47.03-70.2-84.97-54.47ZM1519.39,734.97c60.71,3.14,122,.46,181.91,13.93-19.33-14.64-43.14-22.89-67.32-23.55-38.32-.46-77.61-2.22-114.59,9.62Z"/><path class="cls-3" d="M1425.34,1214.27c72.55,59.91,171.37,81.79,263.29,66.36,36.19-11.13,71.79,8.45,108.19,8.03,11.34,1.55,25.02-2.59,34.89,3.81,6.44,14.64,8.53,30.75,12.43,46.19-24.68-.59-53.85-16.32-74.85,3.01-29.83,25.44-62,48.95-87.4,79.12-24.68,28.53-17.91,69.07-31.63,102.21-14.94,36.61-24.18,75.14-33.72,113.42-14.81-17.07-29.2-35.19-48.99-46.73,13.56,22.38,32.76,42.21,40.12,67.78-7.82,20.84-18.16,41.13-19.16,63.89,29.33-59.24,72.34-111.58,126.69-149.49,2.72-21.34,5.4-43.55,17.2-62.13,14.48-25.27,45.19-35.31,72.67-36.86,16.65,1.88,35.81,18.49,28.99,36.78-21.97,20-68.74,15.35-67.44,55.31,24.43-4.85,49.66-12.01,74.64-6.36,17.74,3.97,31.84,21.5,30.96,39.75-4.69,21.88-28.95,29.16-48.11,32.72-25.4,6.11-51-1.09-75.6-7.07,5.06,12.05,10.04,25.65,3.51,38.28-18.87,44.22-41.96,87.15-72.71,124.34-12.05,14.69-24.06,31.34-42.42,38.32-18.95,4.14-35.73-9.2-48.36-21.67-36.65-37.07-62.92-82.59-91.75-125.6,6.61,42.76,34.18,78.28,55.06,114.97-3.26,20.25-15.94,37.78-22.26,57.23-27.57,67.82-38.07,140.62-56.61,210.95-24.77,54.18-61.79,101.88-99.99,147.27-13.76-83.93-33.18-170.11-81.75-241.41,36.4,76.98,56.61,161.91,54.39,247.35,3.22,102.75-17.86,206.18-60.29,299.81-22.89,50.5-53.8,98.19-95.22,135.51-14.18,10.5-28.07,23.97-45.81,27.66-35.14-4.31-67.32-21-97.15-39.2,14.35,24.56,39.62,38.87,60.79,56.65-59.58,17.49-124.34,10.33-182.04-10.84-64.35-20.84-114.97-68.11-162.46-114.18,21.84,58.99,74.35,99.16,126.23,130.91-13.68,9.16-26.44,21-42.72,25.35-21.67.21-41.29-11.88-62.92-12.93,26.11,17.99,59.16,22.01,84.35,41.46-7.87,2.59-16.02,4.9-24.31,3.14-32.47-5.02-65.52-3.72-98.15-1.42,37.36,5.48,75.94,8.49,111.46,21.84-41.21,5.15-83.84-1.42-124.01,11.97,59.87,2.3,126.81-2.97,178.15,33.85-22.13-4.23-45.31-3.35-65.35,7.91,15.65,1.46,31.34.5,46.98,1.38,37.65,1.55,73.68,49.66,42.67,81.71-11.34-10.71-22.89-24.18-39.62-25.02-27.07-1.67-49.58,16.15-69.7,31.88-5.69-20.63-8.24-42.67-18.95-61.5-15.65-24.18-45.73-36.27-73.89-34.47,35.31,9.83,76.65,31.84,72.76,74.93-48.49-35.19-120.74-8.58-147.1,41.67-6.28,8.79-2.22,19.41-.79,29.04-48.11-8.16-85.52-55.56-80.04-104.47,4.81-62.72,43.34-115.56,66.65-172.37,27.65-55.1,50.62-112.34,72.3-169.99,12.93-41.17,61.29-48.03,93.42-68.87,33.26,42.05,69.58,85.06,120.28,106.31-16.57-21.3-38.53-37.95-53.13-60.83-71.38-96.81-99.07-218.6-102.13-337.05-1.76-65.31,8.16-130.37,24.31-193.5-29.91,48.87-42.93,106.69-50.33,162.96-5.94,35.81.29,72.21-4.69,108.11-88.95-46.11-168.48-109.49-235.3-183.96-51.46-62.72-95.39-131.71-129.74-205.17-35.02-97.15-43.13-203.92-92.8-295.71,4.27,30.42,19.79,58.41,20.17,89.53-22.43-42.34-42.63-86.73-74.64-123-32.3-35.35-72.67-64.85-119.62-76.86-33.14-10.67-70.66-7.53-100.45-27.61,12.3-19.29,36.11-23.05,56.31-29.2,105.64-27.4,224.88-25.44,320.06,33.3-11.84,27.74-30.88,54.01-31.09,85.27,28.78-9.66,55.6-24.31,84.6-33.51-12.47-15.35-32.26-24.06-40.25-42.88,33.3,15.4,56.48,45.31,82,70.62-27.07,39.5-60,80.29-66.4,128.99,8.95,1.34,18.12.25,25.73-4.94,26.11-16.23,55.1-27.07,80.96-43.76-2.43-3.26-4.85-6.53-7.24-9.75-12.26-16.86-26.23-33.43-30.71-54.35l-1.3-4.73c31.76,27.78,52.51,65.94,81.33,96.73-25.44,38.57-41.08,82.71-59.58,124.89-5.61,16.53-16.74,35.98-3.81,51.96,57.03-25.65,105.01-66.94,160.99-94.47,9.75.84,17.24,8.41,25.31,13.3-18.7,33.18-23.43,71.5-32.72,107.86-6.99,27.45-12.38,55.77-9.12,84.22,2.89.67,8.66,2.01,11.55,2.68,48.53-45.1,89.07-98.07,134.55-146.1,4.64-6.4,15.98-8.07,17.32,1.84,18.41,58.7,39.5,116.64,59.28,174.97,4.39.54,8.79,1.09,13.22,1.63,24.43-72.13,47.57-144.84,66.15-218.73,4.6-18.74,26.11-23.68,40.42-33.05,49.33,64.51,105.26,123.59,161.58,181.83,2.05-1.3,6.15-3.93,8.16-5.23.25-18.99,1.38-38.07-.8-56.98-9.5-64.81-16.02-130.03-27.45-194.55-4.94-14.94,11.71-26.73,24.39-27.82,57.65,36.36,122.38,59.33,184.51,86.9,18.83,7.53,37.61,17.99,58.66,16.07-14.18-44.56-36.82-85.89-54.01-129.36-15.23-31.5-26.9-64.89-46.23-94.3,33.76-31.55,61.21-69.03,85.77-107.98,3.1,1.88,9.33,5.69,12.47,7.57-.71,1.42-2.09,4.27-2.76,5.69-16.19,33.68-33.93,68.07-62.88,92.71-5.27,4.31-10.96,8.03-16.53,11.97,60.12,1.76,120.41,1.34,180.53-.46-1.3-19.16-15.98-32.59-27.4-46.52-25.35-29.2-49.75-59.54-78.49-85.56,15.06-39.41,25.4-80.25,35.48-121.12Z"/><path class="cls-3" d="M1739.5,1265.69c27.07-9.87,51.21-25.6,74.1-42.59,26.32,17.45,55.06,31.25,86.9,34.6-4.56,3.64-9.08,7.7-15.15,8.16-47.99,9.29-98.11,12.09-145.85-.17Z"/><path class="cls-3" d="M2095.25,1382.59c23.22-18.16,58.99-32.26,85.68-13.01,11.59,6.74,9.75,21.09,10.59,32.51-27.19,19.66-68.91,15.61-85.1,49.33,39.29-2.72,100.16-4.64,111.54,43.89-19.29,23.51-51.34,16.11-77.9,16.86-16.44.71-30.83-7.99-45.39-14.31,20,37.91,1.05,79.83-15.81,114.93-21.84,37.45-41.59,77.19-72.42,108.24-22.13,19.12-53.93,5.1-74.26-9.92-17.57-11.71-13.6-35.14-15.69-53.26-2.34-48.32-16.82-95.14-19.37-143.3,30.33,23.64,50.08,57.9,80.83,81.17,10.67-45.06,43.05-81.58,69.12-118.9,27.45-25.48,19.12-70,48.2-94.22Z"/><path class="cls-3" d="M1867.15,2121.74c10.46-28.24,15.15-58.2,25.31-86.48,26.99,16.69,49.41,39.5,71.12,62.46,12.84,14.18,25.35,32.47,21.46,52.67-9.25,90.08-26.73,181.16-9.25,271.45-18.74.84-37.65,3.68-54.51,12.38,22.17.92,44.39-1.63,66.48,1.3-3.14,20.63,2.26,43.97-11.51,61.59-27.74,39.87-43.97,88.78-34.73,137.56,8.41-14.77,4.56-32.55,9.5-48.32,8.24-27.7,17.82-55.44,33.64-79.83,16.15-23.6,13.14-53.89,24.68-79.41,15.06-47.53,48.83-96.52,101.16-105.43-33.68,41.13-42.05,100.45-18.62,148.61,2.55-41.67-.79-87.73,26.86-122.5,11.46-15.19,30.83-38.11,51.75-26.4,20.38,19.91,26.07,49.49,37.7,74.64-36.69,5.44-76.73,14.6-102.29,43.6,35.94-9.54,78.24-35.77,113.38-11,3.81,40.75-22.3,80.04-54.6,103.01,49.45-6.36,82.3-61.42,71.58-108.7-2.13-21.59-13.39-40.83-17.07-61.79,21.92-25.9,58.62-49.03,93.76-40.25,26.94,9.25,36.52,44.93,29.04,70.16-22.8-19.66-53.64-21.71-81.38-12.38,26.07,2.47,58.62,7.53,72.21,32.76,9.29,70.12-50.96,127.86-112.92,148.4,6.23,1.26,12.51,2.59,18.83,4.02-38.95,47.57-78.28,97.36-133.3,127.31,15.31-32.3,28.24-65.94,33.39-101.54-27.19,51.29-48.36,110.33-97.86,144.97-23.51,19.37-53.51,33.34-84.6,27.95-20.12-1.92-31.42-21.25-38.45-38.07-16.57-42.21-28.66-86.1-36.9-130.66-7.45-38.99-32.22-71.42-58.03-100.33-22.17-22.59-49.91-39.79-68.99-65.35-12.72-26.23-15.69-55.94-21.63-84.22,60.75-62.76,108.4-138.65,134.76-222.16ZM2081.19,2552.92c-24.52,42.21-55.18,81.08-75.22,125.81,19.79-15.73,30.96-39.03,44.22-59.95,11.3-21.42,27.03-41.38,31-65.85Z"/><path class="cls-4" d="M2083.45,1069.68c34.89-6.23,68.74-17.07,102.42-27.91,1.05,52.63-42.55,100.5-92.5,112.71-88.86,21.38-180.61-31.5-230.07-103.72,33.6,7.2,66.4,19.91,101.16,20.38,10.17.67,23.05-1.34,28.83,9.41,9.87,14.73,24.73,24.6,41.34,30.29-4.9-10.33-9.75-20.71-14.39-31.13,19.87-9.29,41.96-7.95,63.22-10.04Z"/><path class="cls-4" d="M673.05,2950.38c18.12-30.21,52.67-45.98,86.52-50.16,35.9,1.17,55.1,41.96,49.12,73.89-46.19,2.84-94.93.92-135.64-23.72Z"/><path class="cls-4" d="M832.11,2939.46c14.77-18.62,36.19-34.68,60.79-35.14,20.92,3.97,27.45,28.07,34.73,45.14-31.88-.04-66.02,5.23-95.52-10Z"/><path class="cls-6" d="M1749.92,1372.13c15.27-12.47,30.92-33.68,53.26-27.24,17.15,4.18,44.6,1.84,47.99,24.6,16.78,71.71,24.77,145.05,38.24,217.35-9.83-13.6-18.66-29.54-34.81-36.4-21.25-11.34-45.31-2.59-67.74-1.67,15.02-15.52,40.96-9.2,55.69-25.14,11.25-21,3.05-53.64-21.8-60.58-29.12-6.48-61,2.97-83.51,22.13-17.24,17.99-26.48,42.72-28.32,67.36.29,12.8-12.64,18.58-21.17,25.52-20.12,13.14-36.02,31.29-54.14,46.86,10.42-39.83,25.65-78.24,37.86-117.56,6.9-24.98,5.9-52.72,20.88-74.97,15.86-22.97,38.7-39.87,57.57-60.25Z"/><path class="cls-6" d="M1866.64,1634.66c14.1-8.33,17.28-25.65,23.26-39.58,7.95,31.71,6.07,64.77,12.55,96.69-41.84,22.8-89.74,20.92-135.76,21.97,42.21,21.34,90.58,16.86,134.84,5.4,3.1,70.04-6.9,139.78-17.86,208.81-2.13,7.87-2.68,20.08-12.93,21.46-66.06,10.96-133.63,7.07-199.48-2.3,63.38,28.95,134.72,30.58,203.08,34.06-21.25,79.53-45.02,159.61-87.48,230.78-3.14,7.61-11.88,7.07-18.62,6.15-75.94-9.33-153-21.42-223.37-52.93,20.33,23.09,49.45,34.93,76.48,48.16,44.6,18.37,91.83,30.54,139.91,35.23-29.37,46.4-68.28,85.68-107.73,123.55-6.28,5.65-14.18,11.05-23.09,9.29-59.45-9.08-115.81-31.59-169.82-57.19,14.94,21.88,40.21,32.59,61.42,47.15,27.03,18.12,57.44,30.12,88.91,38.03-87.23,56.94-187.81,92.84-291.74,101.83,33.47-82.59,50.92-170.82,54.98-259.69-1.46-22.55,19.37-36.02,30.37-53.05,29.91-43.26,62.51-85.68,83.09-134.43,19.2-66.52,28.03-136.1,53.85-200.74,8.53-19.37,10.33-43.18,27.28-57.65,17.49,24.68,52.34,50.67,82.59,32.22,34.56-21.97,57.74-57.49,77.99-92.17,16.02-33.43,34.77-66.94,38.99-104.34,32.01,10.21,68.91,11.92,98.32-6.69Z"/><path class="cls-6" d="M426.24,1994.05c-7.53-18.28-17.91-36.4-17.49-56.73,72.67,132.08,182.62,243.83,315.67,315.29,13.18,7.41,30.54,14.98,31.21,32.63,4.02,31.09,11.59,61.5,23.05,90.7,4.1,5.77-1.84,13.72-7.74,7.66-155.14-84.89-277.93-226.09-344.7-389.55Z"/></svg>